<svg xmlns="http://www.w3.org/2000/svg" viewBox="126 301.5 414.5 148"><path fill="#C9DCDA" d="M 126.2 301.72 L 126.2 333.57 L 199.14 333.57 C 207.7 333.57 214.73 340.13 215.44 348.51 C 215.48 348.97 215.5 349.45 215.5 349.92 C 215.5 356.11 212.05 361.49 206.99 364.27 C 204.65 365.55 201.98 366.27 199.14 366.27 L 126.2 366.27 L 126.2 398.93 L 165.59 398.93 C 165.73 398.92 165.86 398.92 166 398.92 C 166.14 398.92 166.29 398.92 166.43 398.93 C 172.39 399.08 177.55 402.41 180.29 407.31 C 180.54 407.75 180.76 408.2 180.96 408.66 C 193.12 432.61 217.97 449.03 246.68 449.03 C 247.04 449.03 247.4 449.03 247.75 449.02 L 247.75 416.56 C 247.4 416.57 247.04 416.57 246.68 416.57 C 232.68 416.57 220.32 409.59 212.87 398.93 C 212.49 398.39 212.13 397.84 211.77 397.27 C 224.04 393.99 234.4 386 240.81 375.38 C 245.21 368.06 247.75 359.5 247.75 350.33 C 247.75 344.68 246.79 339.26 245 334.21 C 240.75 322.07 231.81 312.13 220.35 306.57 C 213.93 303.46 206.74 301.72 199.14 301.72 Z M 126.2 301.72 M 220.35 306.57 C 231.81 312.13 240.75 322.07 245 334.21 C 245.55 334.19 246.11 334.18 246.68 334.18 C 247.04 334.18 247.4 334.18 247.75 334.19 C 270.01 334.76 287.87 352.98 287.87 375.38 L 320.33 375.38 C 320.33 335.05 287.93 302.3 247.75 301.73 C 247.4 301.72 247.04 301.72 246.68 301.72 C 237.4 301.72 228.52 303.43 220.35 306.57 M 126.2 398.93 L 158.66 398.93 L 158.66 449.03 L 126.2 449.03 Z M 126.2 398.93 M 287.87 375.38 C 287.87 397.76 270.01 415.98 247.75 416.56 L 247.75 449.02 C 287.93 448.45 320.33 415.68 320.33 375.38 Z M 287.87 375.38 M 507.59 301.72 L 507.59 301.74 C 521.18 309.36 532.45 320.62 540.05 334.21 L 540.05 301.72 Z M 507.59 301.72 M 430.2 311.22 C 428.48 312.18 426.82 313.2 425.2 314.3 L 425.2 375.38 C 425.2 368.23 427.01 361.53 430.2 355.69 C 435.57 345.82 444.85 338.41 455.95 335.51 C 459.28 334.64 462.79 334.18 466.4 334.18 C 489.16 334.18 507.6 352.62 507.6 375.38 L 540.05 375.38 C 540.05 349.96 527.17 327.54 507.6 314.3 C 495.84 306.36 481.65 301.72 466.4 301.72 C 453.24 301.72 440.89 305.16 430.2 311.22 M 507.6 375.38 L 540.05 375.38 L 540.05 449.03 L 507.6 449.03 Z M 507.6 375.38 M 393.99 301.72 C 393.58 301.72 393.15 301.72 392.74 301.73 C 378.06 301.97 364.43 306.51 353.03 314.14 C 334.86 326.32 322.42 346.37 320.57 369.42 L 320.57 449.03 L 353.03 449.03 L 353.03 379.81 C 352.87 378.36 352.79 376.87 352.79 375.38 C 352.79 373.88 352.87 372.39 353.03 370.93 C 355.2 350.67 372.04 334.81 392.74 334.2 L 392.74 375.38 C 392.74 390.05 397.04 403.74 404.44 415.23 C 409.87 423.62 416.94 430.86 425.2 436.45 C 426.82 437.55 428.48 438.57 430.2 439.53 C 440.89 445.59 453.24 449.03 466.4 449.03 C 481.65 449.03 495.84 444.39 507.6 436.45 L 507.6 375.38 C 507.6 398.12 489.16 416.57 466.4 416.57 C 462.79 416.57 459.28 416.11 455.95 415.23 C 444.85 412.33 435.57 404.91 430.2 395.06 C 427.01 389.21 425.2 382.5 425.2 375.38 L 425.2 301.72 Z M 393.99 301.72"/></svg>
